<?xml version="1.0" encoding="utf-8"?><svg viewBox="0 0 40 40" xmlns="http://www.w3.org/2000/svg" xmlns:xlink="http://www.w3.org/1999/xlink"><style>:root>svg{display:none}:root>svg:target{display:block}</style><svg viewBox="0 0 21 21" id="RSS" xmlns="http://www.w3.org/2000/svg"><path d="M4.76 16.233a2.762 2.762 0 010 3.926 2.791 2.791 0 01-3.942 0 2.765 2.765 0 010-3.927 2.786 2.786 0 013.942 0zm0 0zM.818 20.16zM0 7.141v4.01a9.78 9.78 0 016.947 2.886 9.8 9.8 0 012.883 6.956V21h4.026a13.826 13.826 0 00-4.066-9.792A13.809 13.809 0 000 7.141zM.01 0v4.008A17.011 17.011 0 0116.98 21H21a20.945 20.945 0 00-6.158-14.839A20.926 20.926 0 00.01 0z" fill="#14a5da"/></svg><svg viewBox="0 0 27 18.167" id="burger" xmlns="http://www.w3.org/2000/svg"><g stroke="#000" stroke-width="2" fill="none"><path d="M0 1h27M0 9.083h27M0 17.167h27"/></g></svg><svg viewBox="0 0 40 40" id="done" xmlns="http://www.w3.org/2000/svg"><defs><style>.ca{fill:#3dcc89}</style></defs><path class="ca" d="M28.305 11.715L17.463 22.758l-5.555-5.578-2.979 2.979 8.758 8.736 14.067-13.642z"/><path class="ca" d="M20 0a20 20 0 1020 20A20 20 0 0020 0zm0 36.38A16.38 16.38 0 1136.38 20 16.38 16.38 0 0120 36.38z"/></svg><svg viewBox="0 0 6.658 14.267" id="fb" xmlns="http://www.w3.org/2000/svg"><path d="M1.439 2.763v1.964H.004v2.4h1.439v7.138h2.956V7.129h1.984s.186-1.152.276-2.411H4.404V3.076a.7.7 0 01.641-.576h1.611V-.001h-2.19c-3.1 0-3.027 2.405-3.027 2.764z" fill="#14a5da"/></svg><svg viewBox="0 0 15.462 15.462" id="inst" xmlns="http://www.w3.org/2000/svg"><path data-name="Path 1409" d="M11.195 0H4.267A4.272 4.272 0 000 4.267v6.928a4.272 4.272 0 004.267 4.267h6.928a4.272 4.272 0 004.267-4.267V4.267A4.272 4.272 0 0011.195 0zm2.9 11.195a2.9 2.9 0 01-2.9 2.9H4.267a2.9 2.9 0 01-2.895-2.9V4.267a2.9 2.9 0 012.895-2.9h6.928a2.9 2.9 0 012.9 2.9v6.928z" fill="#14a5da"/><path data-name="Path 1410" d="M7.731 3.747a3.984 3.984 0 103.984 3.984 3.989 3.989 0 00-3.984-3.984zm0 6.6a2.612 2.612 0 112.612-2.612 2.615 2.615 0 01-2.612 2.608z" fill="#14a5da"/><path data-name="Path 1411" d="M11.882 2.584a1.005 1.005 0 10.712.294 1.01 1.01 0 00-.712-.294z" fill="#14a5da"/></svg><svg viewBox="0 0 32 23" id="left-arrow" xmlns="http://www.w3.org/2000/svg"><path d="M10.274 21.811a1.118 1.118 0 101.587-1.571l-8.047-8.047h26.554a1.119 1.119 0 001.126-1.111 1.13 1.13 0 00-1.127-1.127H3.814L11.86 1.92a1.139 1.139 0 000-1.587 1.112 1.112 0 00-1.587 0L.322 10.285a1.12 1.12 0 000 1.571l9.952 9.955z"/></svg><svg viewBox="0 0 10.913 15.6" id="odnoklassniki" xmlns="http://www.w3.org/2000/svg"><g data-name="Group 27"><g data-name="Group 26"><path data-name="Path 1412" d="M5.454 0a3.9 3.9 0 103.9 3.9 3.9 3.9 0 00-3.9-3.9zm0 5.85a1.95 1.95 0 111.95-1.95 1.952 1.952 0 01-1.95 1.95z" fill="#14a5da"/></g></g><g data-name="Group 29"><g data-name="Group 28"><path data-name="Path 1413" d="M10.628 7.692a.974.974 0 00-1.379 0 5.37 5.37 0 01-7.584 0 .975.975 0 10-1.379 1.38 7.268 7.268 0 004.336 2.085l-2.78 2.78a.975.975 0 101.379 1.379l2.236-2.236 2.236 2.236a.975.975 0 101.379-1.379l-2.78-2.78a7.268 7.268 0 004.336-2.085.976.976 0 000-1.38z" fill="#14a5da"/></g></g></svg><svg viewBox="0 0 32 23" id="right-arrow" xmlns="http://www.w3.org/2000/svg"><path d="M21.22.354a1.118 1.118 0 10-1.587 1.571l8.047 8.047H1.126A1.118 1.118 0 000 11.083a1.13 1.13 0 001.127 1.127H27.68l-8.047 8.035a1.139 1.139 0 000 1.587 1.111 1.111 0 001.587 0l9.952-9.952a1.12 1.12 0 000-1.57L21.22.353z"/></svg></svg>